<svg xmlns="http://www.w3.org/2000/svg" xmlns:xlink="http://www.w3.org/1999/xlink" viewBox="0 0 385.13 116.52">
  <defs>
    <style>
      .cls-1 {
        fill: url(#Discover);
      }

      .cls-2 {
        fill: #fff;
      }

      .cls-3 {
        fill: url(#Discover-6);
      }
    </style>
    <linearGradient id="Discover" x1="108.45" y1="116.79" x2="305.45" y2="116.79" gradientUnits="userSpaceOnUse">
      <stop offset="0.02" stop-color="#f47920"/>
      <stop offset="0.55" stop-color="#f15822"/>
      <stop offset="1" stop-color="#ef4123"/>
    </linearGradient>
    <linearGradient id="Discover-6" data-name="Discover" x1="14.38" y1="76.88" x2="36.21" y2="76.88" xlink:href="#Discover"/>
  </defs>
  <g id="Layer_1" data-name="Layer 1">
    <g>
      <g>
        <path class="cls-1" d="M137.51,103.56V130.4H132V117.58L122.75,130h-.08l-8.85-11.65v12h-5.37V103.59a.38.38,0,0,1,.69-.23l13.65,18.38,14-18.41A.39.39,0,0,1,137.51,103.56Z" transform="translate(-14.38 -13.88)"/>
        <path class="cls-1" d="M180,103.52v5.11H166.28v5.73H178.4v5.12H166.28v5.8H180.5v5.12H160.72V103.52Z" transform="translate(-14.38 -13.88)"/>
        <path class="cls-1" d="M203.71,103.52h8.44a17.75,17.75,0,0,1,8.89,2,12.27,12.27,0,0,1,5.08,5.15,14.82,14.82,0,0,1,1.59,6.77,12.34,12.34,0,0,1-1.91,6.83,12.71,12.71,0,0,1-5.16,4.55,15.92,15.92,0,0,1-7.11,1.59h-9.82Zm8.86,21.76a10.36,10.36,0,0,0,6.86-2.11,7.51,7.51,0,0,0,2.53-6.1,8.49,8.49,0,0,0-1.4-5.12,7.5,7.5,0,0,0-3.26-2.63,9.77,9.77,0,0,0-3.51-.73h-4.52v16.69Z" transform="translate(-14.38 -13.88)"/>
        <path class="cls-1" d="M256.48,103.52V130.4h-5.56V103.52Z" transform="translate(-14.38 -13.88)"/>
        <path class="cls-1" d="M285.17,130.4h-5.49l12.41-26.91a.53.53,0,0,1,1,0l12.41,26.91H299l-6.75-16.26Z" transform="translate(-14.38 -13.88)"/>
      </g>
      <g>
        <g>
          <path class="cls-2" d="M335,16.32a2,2,0,0,1,1.89-2h25.66a36.82,36.82,0,1,1,0,73.63H336.93A2,2,0,0,1,335,86Zm26.5,56.06c11.89,0,20.51-9.36,20.51-21.35s-8.62-21.25-20.51-21.25h-10.1v42.6Z" transform="translate(-14.38 -13.88)"/>
          <path class="cls-2" d="M248.1,15.54a2,2,0,0,0-1.86-1.66h-1.66a2.29,2.29,0,0,0-1.76,1L210.59,62.7h-.42L177.94,14.92a2.29,2.29,0,0,0-1.76-1h-1.66a2,2,0,0,0-1.86,1.66l-.2,69.53c0,1.37.73,2.27,2,2.27h12.21a2,2,0,0,0,2-1.65l0-27h.21l18.82,27.51a2.24,2.24,0,0,0,1.75,1.14h2.07a2.24,2.24,0,0,0,1.76-1.14L232,58.7h.21l0,27a2,2,0,0,0,2,1.65h12.21c1.24,0,2-.9,2-2.27Z" transform="translate(-14.38 -13.88)"/>
          <path class="cls-2" d="M126.45,13.88A37.25,37.25,0,1,1,89.31,51.24,37.18,37.18,0,0,1,126.45,13.88Zm0,58a20.7,20.7,0,1,0-20.59-20.59A20.74,20.74,0,0,0,126.45,71.83Z" transform="translate(-14.38 -13.88)"/>
          <path class="cls-2" d="M75.11,14.32H62.38a2,2,0,0,0-2,2V53.68h-.1L19,13.88h-2.6a2,2,0,0,0-2,1.86l.11,39.18a1.11,1.11,0,0,0,.53.95l14,8.72a1.12,1.12,0,0,0,1.71-1V46.84h.11L71.81,88a3.18,3.18,0,0,0,1.35.52h2a1.68,1.68,0,0,0,1.68-1.68V16A1.68,1.68,0,0,0,75.11,14.32Z" transform="translate(-14.38 -13.88)"/>
          <path class="cls-2" d="M274.62,84.86a3.86,3.86,0,0,1-3.73,2.49H259.51a1.83,1.83,0,0,1-1.76-2.69L290.14,15a2.1,2.1,0,0,1,1.76-1.14h1A2.1,2.1,0,0,1,294.69,15l32.39,69.64a1.83,1.83,0,0,1-1.76,2.69H313.83c-1.86,0-2.69-.62-3.62-2.59L292.42,45.44h-.11Z" transform="translate(-14.38 -13.88)"/>
        </g>
        <path class="cls-3" d="M14.38,88V65.76A2,2,0,0,1,17.49,64L35.25,75.16a2,2,0,0,1,0,3.44L17.49,89.72A2,2,0,0,1,14.38,88Z" transform="translate(-14.38 -13.88)"/>
      </g>
    </g>
  </g>
</svg>
