<?xml version="1.0" encoding="utf-8"?>
<!-- Generator: Adobe Illustrator 27.0.0, SVG Export Plug-In . SVG Version: 6.00 Build 0)  -->
<svg version="1.1" id="Layer_1" xmlns="http://www.w3.org/2000/svg" xmlns:xlink="http://www.w3.org/1999/xlink" x="0px" y="0px"
	 viewBox="0 0 850.9 380.7" style="enable-background:new 0 0 850.9 380.7;" xml:space="preserve">
<style type="text/css">
	.st0{fill:#E22126;}
	.st1{fill:#231F20;stroke:#231F20;stroke-width:3.99;stroke-miterlimit:10;}
</style>
<g>
	<polygon class="st0" points="153.8,122.1 153.8,74.8 203.1,74.8 203.1,44.5 39.7,44.5 39.7,129.8 88.6,129.8 88.6,177.2 
		39.7,177.2 39.7,207.9 203.1,207.9 203.1,122.1 	"/>
</g>
<g>
	<path class="st1" d="M294.1,139.6v66.5h-21.5V46.7h45.1c10.1,0,18.8,1,26.1,3.1c7.3,2,13.4,5,18.2,8.8c4.8,3.9,8.3,8.5,10.6,14
		s3.4,11.6,3.4,18.3c0,5.6-0.9,10.9-2.7,15.8c-1.8,4.9-4.4,9.3-7.7,13.2c-3.4,3.9-7.5,7.2-12.4,10c-4.9,2.7-10.4,4.8-16.5,6.2
		c2.7,1.6,5,3.8,7.1,6.8l46.5,63.3h-19.1c-3.9,0-6.8-1.5-8.7-4.6l-41.4-57c-1.3-1.8-2.6-3.1-4.1-3.8c-1.5-0.8-3.7-1.2-6.7-1.2H294.1
		z M294.1,123.9h22.6c6.3,0,11.8-0.8,16.6-2.3c4.8-1.5,8.8-3.7,12-6.5c3.2-2.8,5.7-6.1,7.3-10s2.4-8.1,2.4-12.8
		c0-9.5-3.1-16.6-9.4-21.5c-6.3-4.8-15.6-7.2-28-7.2h-23.6V123.9z"/>
	<path class="st1" d="M511.9,46.7v17.6h-76.5v53h62v16.9h-62v54.4h76.5v17.6h-98.2V46.7H511.9z"/>
	<path class="st1" d="M681.1,126.4c0,11.9-1.9,22.8-5.7,32.6c-3.8,9.8-9.1,18.2-16,25.1c-6.9,7-15.2,12.4-24.8,16.2
		c-9.6,3.8-20.3,5.7-32,5.7H543V46.7h59.6c11.7,0,22.4,1.9,32,5.7c9.6,3.8,17.9,9.2,24.8,16.2c6.9,7,12.2,15.4,16,25.2
		C679.3,103.6,681.1,114.5,681.1,126.4z M659,126.4c0-9.8-1.3-18.5-4-26.3c-2.7-7.7-6.5-14.2-11.3-19.6c-4.9-5.3-10.8-9.4-17.8-12.2
		c-7-2.8-14.7-4.2-23.3-4.2h-37.9v124.5h37.9c8.5,0,16.3-1.4,23.3-4.2c7-2.8,12.9-6.9,17.8-12.2c4.9-5.3,8.7-11.8,11.3-19.5
		C657.7,145,659,136.2,659,126.4z"/>
	<path class="st1" d="M792,55.3c0,2.8-0.9,5.1-2.7,7c-1.8,1.8-4.8,2.7-9,2.7h-50.1l-7.3,41.8c8.3-1.8,16-2.7,23-2.7
		c8.3,0,15.6,1.2,22,3.7c6.3,2.4,11.7,5.8,16,10.1c4.3,4.3,7.5,9.4,9.7,15.2c2.2,5.9,3.3,12.2,3.3,19.1c0,8.5-1.5,16.1-4.4,22.9
		c-3,6.8-7,12.7-12.2,17.5c-5.2,4.9-11.2,8.6-18.2,11.2c-7,2.6-14.5,3.9-22.6,3.9c-4.7,0-9.2-0.5-13.5-1.4c-4.3-0.9-8.3-2.2-12-3.7
		c-3.7-1.6-7.2-3.3-10.3-5.3c-3.2-2-6-4.1-8.5-6.3l6-8.5c1.3-1.9,3.1-2.9,5.3-2.9c1.4,0,3.1,0.6,4.9,1.7c1.9,1.1,4.2,2.4,6.8,3.8
		c2.7,1.4,5.8,2.7,9.4,3.8c3.6,1.2,7.9,1.7,12.9,1.7c5.6,0,10.6-0.9,15-2.7c4.4-1.8,8.2-4.3,11.4-7.6c3.2-3.3,5.6-7.3,7.3-11.9
		c1.7-4.6,2.6-9.7,2.6-15.5c0-5-0.7-9.5-2.2-13.5c-1.4-4-3.6-7.4-6.6-10.2c-2.9-2.8-6.6-5-11-6.6c-4.4-1.6-9.5-2.3-15.4-2.3
		c-4,0-8.2,0.3-12.5,1c-4.3,0.7-8.8,1.7-13.4,3.2l-12.5-3.7l12.9-74.5H792V55.3z"/>
</g>
<g>
	<path d="M88,250.3v6.8H68.8v52.6h-8V257H41.5v-6.8H88z"/>
	<path d="M88.7,309.7v-42h4.2c0.8,0,1.4,0.2,1.7,0.5c0.3,0.3,0.5,0.8,0.6,1.6l0.5,6.5c1.4-2.9,3.2-5.2,5.3-6.9
		c2.1-1.6,4.6-2.5,7.4-2.5c1.2,0,2.2,0.1,3.2,0.4s1.8,0.6,2.6,1.1l-1,5.5c-0.2,0.7-0.6,1-1.3,1c-0.4,0-1-0.1-1.8-0.4
		c-0.8-0.3-1.9-0.4-3.4-0.4c-2.6,0-4.7,0.7-6.4,2.2c-1.7,1.5-3.2,3.7-4.3,6.5v26.7H88.7z"/>
	<path d="M128.5,267.7v26.8c0,3.2,0.7,5.6,2.2,7.4s3.7,2.6,6.6,2.6c2.2,0,4.2-0.5,6.1-1.5c1.9-1,3.7-2.4,5.3-4.3v-31h7.4v42h-4.4
		c-1.1,0-1.7-0.5-2-1.5l-0.6-4.5c-1.8,2-3.9,3.6-6.1,4.9c-2.3,1.2-4.9,1.8-7.8,1.8c-2.3,0-4.3-0.4-6.1-1.1c-1.8-0.8-3.2-1.8-4.4-3.2
		c-1.2-1.4-2.1-3.1-2.7-5c-0.6-2-0.9-4.1-0.9-6.5v-26.8H128.5z"/>
	<path d="M184.8,267c2.5,0,4.8,0.4,7,1.3c2.1,0.8,4,2.1,5.5,3.6s2.8,3.6,3.6,5.9c0.9,2.3,1.3,5,1.3,8c0,1.2-0.1,1.9-0.4,2.3
		c-0.2,0.4-0.7,0.6-1.4,0.6h-27.9c0.1,2.7,0.4,5,1.1,6.9c0.7,2,1.6,3.6,2.7,4.9c1.2,1.3,2.5,2.3,4.1,2.9c1.6,0.6,3.4,1,5.4,1
		c1.9,0,3.4-0.2,4.8-0.6c1.3-0.4,2.5-0.9,3.5-1.4c1-0.5,1.8-1,2.4-1.4c0.6-0.4,1.2-0.6,1.7-0.6c0.6,0,1.1,0.2,1.4,0.7l2.1,2.7
		c-0.9,1.1-2,2.1-3.3,2.9c-1.3,0.8-2.6,1.5-4.1,2c-1.5,0.5-3,0.9-4.5,1.2s-3.1,0.4-4.6,0.4c-2.9,0-5.6-0.5-8-1.5
		c-2.4-1-4.6-2.4-6.3-4.3s-3.2-4.2-4.2-7s-1.5-6-1.5-9.6c0-2.9,0.4-5.7,1.3-8.2c0.9-2.5,2.2-4.7,3.9-6.6c1.7-1.9,3.7-3.3,6.2-4.4
		C179,267.5,181.8,267,184.8,267z M185,272.4c-3.6,0-6.4,1-8.4,3.1c-2,2.1-3.3,4.9-3.8,8.6h22.8c0-1.7-0.2-3.3-0.7-4.7
		c-0.5-1.4-1.2-2.7-2.1-3.7c-0.9-1-2-1.8-3.3-2.4C188.2,272.7,186.7,272.4,185,272.4z"/>
	<path d="M253.3,250.3v6.8h-19.2v52.6h-8V257h-19.3v-6.8H253.3z"/>
	<path d="M270.4,254.5c0,0.7-0.1,1.4-0.4,2s-0.7,1.2-1.2,1.7s-1,0.9-1.7,1.1c-0.6,0.3-1.3,0.4-2,0.4s-1.4-0.1-2-0.4
		c-0.6-0.3-1.2-0.7-1.7-1.1s-0.9-1-1.1-1.7s-0.4-1.3-0.4-2c0-0.7,0.1-1.4,0.4-2.1s0.7-1.2,1.1-1.7c0.5-0.5,1-0.9,1.7-1.1
		c0.6-0.3,1.3-0.4,2-0.4s1.4,0.1,2,0.4c0.6,0.3,1.2,0.7,1.7,1.1c0.5,0.5,0.9,1.1,1.2,1.7S270.4,253.8,270.4,254.5z M268.8,267.7v42
		h-7.4v-42H268.8z"/>
	<path d="M281.8,309.7v-42h4.4c1,0,1.7,0.5,2,1.5l0.5,4.3c1.5-1.9,3.3-3.5,5.2-4.7c1.9-1.2,4.2-1.8,6.7-1.8c2.8,0,5.1,0.8,6.9,2.4
		c1.8,1.6,3,3.7,3.8,6.4c0.6-1.5,1.3-2.8,2.3-3.9c1-1.1,2-2,3.2-2.7s2.5-1.2,3.8-1.6c1.3-0.3,2.7-0.5,4.1-0.5c2.2,0,4.2,0.4,5.9,1.1
		s3.2,1.7,4.4,3.1c1.2,1.4,2.1,3,2.8,5c0.6,2,1,4.2,1,6.8v26.7h-7.4v-26.7c0-3.3-0.7-5.8-2.2-7.5c-1.4-1.7-3.5-2.5-6.3-2.5
		c-1.2,0-2.4,0.2-3.5,0.6c-1.1,0.4-2.1,1.1-2.9,1.9c-0.8,0.8-1.5,1.9-2,3.1c-0.5,1.3-0.7,2.7-0.7,4.4v26.7h-7.4v-26.7
		c0-3.4-0.7-5.9-2-7.5c-1.4-1.7-3.3-2.5-5.9-2.5c-1.8,0-3.5,0.5-5.1,1.5c-1.6,1-3,2.3-4.3,4v31.3H281.8z"/>
	<path d="M366.5,267c2.5,0,4.8,0.4,7,1.3c2.1,0.8,4,2.1,5.5,3.6c1.5,1.6,2.8,3.6,3.6,5.9c0.9,2.3,1.3,5,1.3,8c0,1.2-0.1,1.9-0.4,2.3
		s-0.7,0.6-1.4,0.6h-27.9c0.1,2.7,0.4,5,1.1,6.9c0.7,2,1.6,3.6,2.7,4.9c1.2,1.3,2.5,2.3,4.1,2.9s3.4,1,5.4,1c1.9,0,3.4-0.2,4.8-0.6
		c1.3-0.4,2.5-0.9,3.5-1.4c1-0.5,1.8-1,2.4-1.4c0.6-0.4,1.2-0.6,1.7-0.6c0.6,0,1.1,0.2,1.4,0.7l2.1,2.7c-0.9,1.1-2,2.1-3.3,2.9
		c-1.3,0.8-2.6,1.5-4.1,2c-1.5,0.5-3,0.9-4.5,1.2c-1.5,0.3-3.1,0.4-4.6,0.4c-2.9,0-5.6-0.5-8-1.5c-2.4-1-4.6-2.4-6.3-4.3
		c-1.8-1.9-3.2-4.2-4.2-7c-1-2.8-1.5-6-1.5-9.6c0-2.9,0.4-5.7,1.3-8.2c0.9-2.5,2.2-4.7,3.9-6.6c1.7-1.9,3.7-3.3,6.2-4.4
		C360.7,267.5,363.4,267,366.5,267z M366.6,272.4c-3.6,0-6.4,1-8.4,3.1s-3.3,4.9-3.8,8.6h22.8c0-1.7-0.2-3.3-0.7-4.7
		c-0.5-1.4-1.2-2.7-2.1-3.7c-0.9-1-2-1.8-3.3-2.4C369.8,272.7,368.3,272.4,366.6,272.4z"/>
	<path d="M440.9,259.5c-0.2,0.4-0.5,0.7-0.8,0.9c-0.3,0.2-0.6,0.3-1.1,0.3c-0.5,0-1-0.2-1.6-0.7c-0.6-0.5-1.4-1-2.4-1.6
		c-1-0.6-2.1-1.1-3.4-1.6c-1.3-0.5-3-0.7-4.9-0.7c-1.8,0-3.4,0.2-4.8,0.7c-1.4,0.5-2.5,1.1-3.5,2c-0.9,0.8-1.6,1.8-2.1,2.9
		c-0.5,1.1-0.7,2.3-0.7,3.6c0,1.7,0.4,3,1.2,4.1c0.8,1.1,1.9,2,3.2,2.8c1.3,0.8,2.9,1.4,4.6,2c1.7,0.6,3.4,1.2,5.2,1.8
		c1.8,0.6,3.5,1.3,5.2,2.1c1.7,0.8,3.2,1.7,4.6,2.9c1.3,1.2,2.4,2.6,3.2,4.3s1.2,3.8,1.2,6.2c0,2.6-0.4,5-1.3,7.3s-2.2,4.3-3.9,5.9
		c-1.7,1.7-3.8,3-6.3,4c-2.5,1-5.3,1.5-8.4,1.5c-3.8,0-7.3-0.7-10.5-2.1s-5.9-3.3-8.1-5.7l2.3-3.8c0.2-0.3,0.5-0.6,0.8-0.8
		c0.3-0.2,0.7-0.3,1.1-0.3c0.6,0,1.2,0.3,2,0.9c0.7,0.6,1.7,1.3,2.8,2.1s2.5,1.4,4.1,2.1c1.6,0.6,3.5,0.9,5.8,0.9
		c1.9,0,3.6-0.3,5.1-0.8c1.5-0.5,2.8-1.3,3.8-2.2c1-1,1.8-2.1,2.4-3.4c0.6-1.3,0.8-2.8,0.8-4.4c0-1.8-0.4-3.3-1.2-4.4
		c-0.8-1.1-1.9-2.1-3.2-2.9s-2.8-1.4-4.5-2s-3.4-1.1-5.2-1.7c-1.8-0.6-3.5-1.2-5.2-2c-1.7-0.7-3.2-1.7-4.5-2.9
		c-1.3-1.2-2.4-2.7-3.2-4.5c-0.8-1.8-1.2-4-1.2-6.6c0-2.1,0.4-4.1,1.2-6.1c0.8-2,2-3.7,3.5-5.2c1.5-1.5,3.5-2.7,5.7-3.6
		c2.3-0.9,4.9-1.4,7.9-1.4c3.3,0,6.3,0.5,9.1,1.6c2.7,1.1,5.1,2.6,7.2,4.6L440.9,259.5z"/>
	<path d="M470.2,267c3.1,0,5.8,0.5,8.3,1.5s4.6,2.5,6.3,4.4c1.7,1.9,3.1,4.2,4,6.8s1.4,5.6,1.4,8.9c0,3.3-0.5,6.3-1.4,9
		c-0.9,2.7-2.3,4.9-4,6.8c-1.7,1.9-3.8,3.3-6.3,4.3s-5.2,1.5-8.3,1.5c-3.1,0-5.8-0.5-8.3-1.5s-4.6-2.5-6.3-4.3
		c-1.7-1.9-3.1-4.1-4-6.8c-0.9-2.7-1.4-5.6-1.4-9c0-3.3,0.5-6.3,1.4-8.9c0.9-2.7,2.3-4.9,4-6.8c1.7-1.9,3.8-3.3,6.3-4.4
		S467.2,267,470.2,267z M470.2,304.5c4.1,0,7.2-1.4,9.3-4.2c2-2.8,3.1-6.7,3.1-11.6c0-5-1-8.9-3.1-11.7c-2-2.8-5.1-4.2-9.3-4.2
		c-2.1,0-3.9,0.4-5.5,1.1s-2.8,1.8-3.9,3.1c-1,1.4-1.8,3-2.3,5c-0.5,2-0.8,4.2-0.8,6.7s0.3,4.7,0.8,6.7c0.5,2,1.3,3.6,2.3,5
		c1,1.3,2.3,2.4,3.9,3.1C466.3,304.1,468.1,304.5,470.2,304.5z"/>
	<path d="M507.5,248.6v61.1h-7.4v-61.1H507.5z"/>
	<path d="M526.9,267.7v26.8c0,3.2,0.7,5.6,2.2,7.4s3.7,2.6,6.6,2.6c2.2,0,4.2-0.5,6.1-1.5s3.7-2.4,5.3-4.3v-31h7.4v42h-4.4
		c-1.1,0-1.7-0.5-2-1.5l-0.6-4.5c-1.8,2-3.9,3.6-6.1,4.9c-2.3,1.2-4.9,1.8-7.8,1.8c-2.3,0-4.3-0.4-6.1-1.1s-3.2-1.8-4.4-3.2
		s-2.1-3.1-2.7-5s-0.9-4.1-0.9-6.5v-26.8H526.9z"/>
	<path d="M579.4,310.3c-3.3,0-5.9-0.9-7.6-2.8c-1.8-1.9-2.7-4.5-2.7-8v-25.7H564c-0.4,0-0.8-0.1-1.1-0.4c-0.3-0.3-0.5-0.7-0.5-1.2
		v-2.9l6.9-0.9l1.7-13c0.1-0.4,0.2-0.8,0.5-1c0.3-0.3,0.7-0.4,1.2-0.4h3.7v14.5h12v5.3h-12v25.2c0,1.8,0.4,3.1,1.3,3.9
		s2,1.3,3.3,1.3c0.8,0,1.4-0.1,2-0.3c0.6-0.2,1.1-0.4,1.5-0.7c0.4-0.2,0.8-0.5,1.1-0.7c0.3-0.2,0.5-0.3,0.8-0.3c0.4,0,0.7,0.2,1,0.7
		l2.2,3.5c-1.3,1.2-2.8,2.1-4.6,2.8C583.1,310,581.3,310.3,579.4,310.3z"/>
	<path d="M607.4,254.5c0,0.7-0.1,1.4-0.4,2c-0.3,0.6-0.7,1.2-1.2,1.7c-0.5,0.5-1,0.9-1.7,1.1c-0.6,0.3-1.3,0.4-2,0.4
		c-0.7,0-1.4-0.1-2-0.4c-0.6-0.3-1.2-0.7-1.7-1.1s-0.9-1-1.1-1.7c-0.3-0.6-0.4-1.3-0.4-2c0-0.7,0.1-1.4,0.4-2.1
		c0.3-0.6,0.7-1.2,1.1-1.7c0.5-0.5,1-0.9,1.7-1.1c0.6-0.3,1.3-0.4,2-0.4c0.7,0,1.4,0.1,2,0.4c0.6,0.3,1.2,0.7,1.7,1.1
		c0.5,0.5,0.9,1.1,1.2,1.7C607.3,253.1,607.4,253.8,607.4,254.5z M605.8,267.7v42h-7.4v-42H605.8z"/>
	<path d="M635.8,267c3.1,0,5.8,0.5,8.3,1.5s4.6,2.5,6.3,4.4c1.7,1.9,3.1,4.2,4,6.8s1.4,5.6,1.4,8.9c0,3.3-0.5,6.3-1.4,9
		c-0.9,2.7-2.3,4.9-4,6.8c-1.7,1.9-3.8,3.3-6.3,4.3s-5.2,1.5-8.3,1.5c-3.1,0-5.8-0.5-8.3-1.5s-4.6-2.5-6.3-4.3
		c-1.7-1.9-3.1-4.1-4-6.8c-0.9-2.7-1.4-5.6-1.4-9c0-3.3,0.5-6.3,1.4-8.9c0.9-2.7,2.3-4.9,4-6.8c1.7-1.9,3.8-3.3,6.3-4.4
		S632.7,267,635.8,267z M635.8,304.5c4.1,0,7.2-1.4,9.3-4.2c2-2.8,3.1-6.7,3.1-11.6c0-5-1-8.9-3.1-11.7c-2-2.8-5.1-4.2-9.3-4.2
		c-2.1,0-3.9,0.4-5.5,1.1s-2.8,1.8-3.9,3.1c-1,1.4-1.8,3-2.3,5c-0.5,2-0.8,4.2-0.8,6.7s0.3,4.7,0.8,6.7c0.5,2,1.3,3.6,2.3,5
		c1,1.3,2.3,2.4,3.9,3.1C631.9,304.1,633.7,304.5,635.8,304.5z"/>
	<path d="M664.9,309.7v-42h4.4c1,0,1.7,0.5,2,1.5l0.6,4.6c1.8-2,3.9-3.6,6.1-4.9c2.3-1.2,4.9-1.9,7.8-1.9c2.3,0,4.3,0.4,6.1,1.1
		c1.8,0.8,3.2,1.8,4.4,3.2c1.2,1.4,2.1,3.1,2.7,5c0.6,2,0.9,4.1,0.9,6.5v26.7h-7.4v-26.7c0-3.2-0.7-5.6-2.2-7.4s-3.7-2.6-6.7-2.6
		c-2.2,0-4.2,0.5-6.1,1.6c-1.9,1.1-3.6,2.5-5.2,4.3v30.9H664.9z"/>
	<path d="M735,274.6c-0.3,0.6-0.8,0.9-1.5,0.9c-0.4,0-0.9-0.2-1.4-0.5c-0.5-0.3-1.2-0.6-1.9-1c-0.8-0.4-1.7-0.7-2.7-1
		c-1.1-0.3-2.3-0.5-3.7-0.5c-1.2,0-2.4,0.2-3.4,0.5c-1,0.3-1.8,0.8-2.5,1.3c-0.7,0.6-1.2,1.2-1.6,1.9c-0.4,0.7-0.6,1.5-0.6,2.4
		c0,1.1,0.3,2,0.9,2.7c0.6,0.7,1.4,1.3,2.5,1.9c1,0.5,2.2,1,3.5,1.4c1.3,0.4,2.6,0.8,4,1.3c1.4,0.5,2.7,1,4,1.5
		c1.3,0.6,2.5,1.2,3.5,2.1s1.8,1.8,2.5,3s0.9,2.6,0.9,4.3c0,1.9-0.3,3.7-1,5.4c-0.7,1.6-1.7,3.1-3.1,4.3c-1.4,1.2-3,2.1-5,2.8
		c-2,0.7-4.2,1-6.8,1c-2.9,0-5.6-0.5-8-1.4c-2.4-1-4.4-2.2-6.1-3.7l1.7-2.8c0.2-0.4,0.5-0.6,0.8-0.8c0.3-0.2,0.7-0.3,1.2-0.3
		c0.5,0,1,0.2,1.6,0.6s1.2,0.8,2,1.3c0.8,0.5,1.7,0.9,2.9,1.3c1.1,0.4,2.5,0.6,4.2,0.6c1.4,0,2.7-0.2,3.8-0.6c1.1-0.4,2-0.9,2.7-1.5
		c0.7-0.6,1.2-1.4,1.6-2.2c0.3-0.8,0.5-1.7,0.5-2.7c0-1.2-0.3-2.1-0.9-2.9s-1.4-1.4-2.5-1.9c-1-0.5-2.2-1-3.5-1.4
		c-1.3-0.4-2.7-0.8-4-1.3s-2.7-0.9-4-1.5c-1.3-0.6-2.5-1.3-3.5-2.1c-1-0.9-1.8-1.9-2.5-3.2c-0.6-1.3-0.9-2.8-0.9-4.6
		c0-1.6,0.3-3.1,1-4.6c0.7-1.5,1.6-2.8,2.9-3.9c1.3-1.1,2.8-2,4.7-2.7c1.9-0.7,4-1,6.3-1c2.8,0,5.2,0.4,7.4,1.3
		c2.2,0.9,4.1,2.1,5.7,3.6L735,274.6z"/>
	<path d="M763.7,250.3v4.4h-7.5v20.2H751v-20.2h-7.5v-4.4H763.7z M780.8,263.7c0.2,0.4,0.3,0.8,0.5,1.1c0.2,0.3,0.3,0.7,0.4,1.1
		c0.1-0.4,0.3-0.8,0.4-1.1s0.3-0.7,0.5-1.1l7-12.6c0.2-0.4,0.5-0.6,0.7-0.7c0.2-0.1,0.6-0.2,1-0.2h4.4v24.5h-4.6v-15.1l0.4-3.1
		l-7.6,13.9c-0.4,0.8-1,1.2-1.8,1.2h-0.7c-0.9,0-1.5-0.4-1.8-1.2l-7.6-13.8l0.3,3v15.1h-4.6v-24.5h4.4c0.5,0,0.8,0.1,1,0.2
		c0.2,0.1,0.4,0.3,0.7,0.7L780.8,263.7z"/>
</g>
</svg>
