<svg width="11" height="12" viewBox="0 0 11 12" fill="none" xmlns="http://www.w3.org/2000/svg">
<g clip-path="url(#clip0_2753_431)">
<path d="M0.662842 10.5153C0.665905 10.6932 0.717642 10.8667 0.812421 11.0172C0.9072 11.1676 1.0414 11.2892 1.20044 11.3687C1.35925 11.4584 1.53856 11.5056 1.72097 11.5056C1.90337 11.5056 2.08269 11.4584 2.24149 11.3687L9.62276 6.80341C9.78335 6.72604 9.91886 6.60491 10.0138 6.45396C10.1086 6.30301 10.1588 6.12836 10.1588 5.95009C10.1588 5.77182 10.1086 5.59717 10.0138 5.44622C9.91886 5.29526 9.78335 5.17413 9.62276 5.09676L2.24149 0.565599C2.08269 0.475866 1.90337 0.428711 1.72097 0.428711C1.53856 0.428711 1.35925 0.475866 1.20044 0.565599C1.0414 0.64512 0.9072 0.766708 0.812421 0.917154C0.717642 1.0676 0.665905 1.24114 0.662842 1.41893V10.5153Z" stroke="white" stroke-linecap="round" stroke-linejoin="round"/>
</g>
<defs>
<clipPath id="clip0_2753_431">
<rect width="10.6154" height="12" fill="white"/>
</clipPath>
</defs>
</svg>
